<?xml version="1.0" encoding="UTF-8" standalone="no"?>
<!-- Uploaded to: SVG Repo, www.svgrepo.com, Generator: SVG Repo Mixer Tools -->

<svg
   width="666.66699"
   height="666.66699"
   viewBox="0 0 20.00001 20.00001"
   fill="none"
   version="1.1"
   id="svg3"
   sodipodi:docname="play-square.svg"
   inkscape:version="1.3.2 (091e20ef0f, 2023-11-25, custom)"
   xmlns:inkscape="http://www.inkscape.org/namespaces/inkscape"
   xmlns:sodipodi="http://sodipodi.sourceforge.net/DTD/sodipodi-0.dtd"
   xmlns="http://www.w3.org/2000/svg"
   xmlns:svg="http://www.w3.org/2000/svg">
  <defs
     id="defs3" />
  <sodipodi:namedview
     id="namedview3"
     pagecolor="#ffffff"
     bordercolor="#000000"
     borderopacity="0.25"
     inkscape:showpageshadow="2"
     inkscape:pageopacity="0.0"
     inkscape:pagecheckerboard="0"
     inkscape:deskcolor="#d1d1d1"
     inkscape:zoom="0.70710678"
     inkscape:cx="151.32085"
     inkscape:cy="324.56201"
     inkscape:window-width="1920"
     inkscape:window-height="1046"
     inkscape:window-x="0"
     inkscape:window-y="0"
     inkscape:window-maximized="1"
     inkscape:current-layer="svg3" />
  <path
     style="display:inline;fill:#ff0000;stroke-width:0.15063002;stroke:#ff0000;stroke-opacity:1;stroke-dasharray:none"
     d="M 8.7085287,17.965829 C 6.6018438,17.895982 5.2174617,17.641275 4.2617964,17.147694 2.9105991,16.449827 2.304714,15.11575 2.0880246,12.36134 2.0231238,11.536362 1.9965318,10.022532 2.0288967,8.9953104 2.0831271,7.2741147 2.1751488,6.4215318 2.4078315,5.4844698 2.8493109,3.7065399 3.7085235,2.8472469 5.4844698,2.4075423 6.4232589,2.1751089 7.2728772,2.0833941 8.9955813,2.0285241 c 1.0273927,-0.032723 2.5316217,-0.00613 3.3657587,0.059497 2.746994,0.2161335 4.075158,0.8150232 4.774895,2.1530727 0.346648,0.6628674 0.574826,1.5252372 0.705328,2.6657004 0.147771,1.2913722 0.186616,3.2812558 0.09705,4.9712318 -0.129492,2.443205 -0.558537,3.874858 -1.409069,4.701836 -0.273424,0.265851 -0.477188,0.406744 -0.867855,0.600078 -0.99653,0.493165 -2.24279,0.711938 -4.487917,0.787823 -0.87602,0.02961 -1.5293041,0.0291 -2.4652393,-0.0019 z m -0.129174,-3.544705 c 0.1148451,-0.02049 0.2826243,-0.06747 0.3728424,-0.104413 0.1603512,-0.06565 4.5032179,-2.533807 4.7762309,-2.714446 0.333283,-0.220516 0.617765,-0.600138 0.748386,-0.998673 0.07181,-0.21909 0.08015,-0.281937 0.08015,-0.603587 0,-0.3216495 -0.0083,-0.3844971 -0.08015,-0.6035865 C 14.346193,8.9978835 14.061711,8.6182611 13.728428,8.3977455 13.455685,8.2172856 9.1126296,5.7489852 8.9524527,5.6834025 8.7114036,5.5847076 8.3826342,5.5329678 8.1359223,5.554902 7.3599447,5.6238918 6.7451115,6.1397598 6.5411382,6.8929854 6.4961676,7.0590516 6.492525,7.2918492 6.492525,10.000005 c 0,2.708156 0.00364,2.940953 0.048613,3.10702 0.1907379,0.70435 0.7644294,1.22269 1.4672589,1.325694 0.2159508,0.03165 0.3430371,0.02907 0.5709576,-0.01159 z"
     id="path4" />
  <path
     style="display:inline;fill:#ff0000;stroke-width:0.0276179"
     d="M 8.5224447,10.000004 V 7.7529489 l 1.9612183,1.1218944 1.961218,1.1218947 -0.07629,0.047589 c -0.04196,0.02617 -0.924509,0.532496 -1.961218,1.125161 l -1.8849253,1.07757 z"
     id="path5" />
  <path
     style="display:inline;fill:#f9f9f9;stroke-width:61.3735"
     d="m 260.71504,478.75094 c -10.35252,-2.80491 -17.23366,-6.89645 -25.55664,-15.19603 -9.64668,-9.61954 -14.3618,-18.17908 -16.90529,-30.68883 -0.6709,-3.29972 -0.99189,-35.65078 -0.99189,-99.96782 0,-91.62589 0.0661,-95.34789 1.81542,-102.18758 2.77169,-10.83722 7.59496,-19.25849 15.63543,-27.29896 16.9989,-16.9989 40.44912,-21.94888 62.43687,-13.17945 7.69497,3.06901 157.20216,88.39377 163.86332,93.51792 10.10156,7.77068 18.29769,20.5103 21.98375,34.17039 2.06628,7.65735 2.05839,23.1007 -0.0158,30.95707 -3.45576,13.08926 -11.62,25.83777 -21.52555,33.6123 -7.29668,5.72692 -158.79519,92.1689 -166.55651,95.03378 -8.86918,3.27381 -24.55144,3.83682 -34.18311,1.22721 z m 89.22894,-106.89581 c 36.39157,-20.79615 66.16649,-38.12056 66.16649,-38.4987 0,-0.61905 -131.95998,-76.50948 -133.03639,-76.50948 -0.24771,0 -0.45037,34.38435 -0.45037,76.40967 0,42.02531 0.2596,76.40966 0.57689,76.40966 0.31729,0 30.35181,-17.01502 66.74338,-37.81115 z"
     id="path6"
     transform="scale(0.03)" />
  <path
     style="display:inline;fill:#ff0000;stroke:none;stroke-width:69.167;stroke-dasharray:none;stroke-opacity:1"
     d="M 284,664.90506 C 175.78908,660.01315 116.77613,642.79607 73.233282,603.41367 34.002363,567.93121 11.878929,511.05146 4.5313149,426.77967 0.8629496,384.7062 0.585252,289.64268 4.0032249,246 8.4844873,188.78062 18.464735,147.46605 36.13167,113 54.815013,76.551062 80.455979,51.721428 118.19873,33.52971 153.38596,16.569733 195.01516,7.6633268 261.5,2.8709572 282.81993,1.334171 384.46356,1.3592135 406,2.9065585 472.74593,7.7021052 514.24392,16.690452 549.5,33.988252 620.36374,68.756354 652.67919,129.11331 662.47685,245 c 5.85449,69.24682 3.35427,169.65493 -5.57772,224 -6.90495,42.01184 -19.80269,77.67075 -37.992,105.03801 -8.85701,13.32607 -31.95354,36.30544 -45.51981,45.2889 -36.52776,24.18833 -82.27099,37.20146 -151.88732,43.20921 -16.96517,1.46406 -86.54158,3.54965 -109.5,3.28232 -5.775,-0.0672 -18.375,-0.47827 -28,-0.91338 z m 125,-66.42344 c 59.37548,-4.38793 97.53283,-13.52717 123.81265,-29.65494 11.79196,-7.23665 29.88692,-25.28439 36.42174,-36.32668 24.24057,-40.9608 33.42862,-109.86047 30.74546,-230.55529 C 598.83406,250.40425 596.96927,227.95129 591.38842,198.5 574.96167,111.81272 535.39018,80.655739 427.54768,69.498482 381.73279,64.758529 272.6954,65.367548 228.5,70.610247 171.90473,77.323886 137.40736,90.347134 113.88286,113.87985 87.383168,140.38879 75.56406,176.1329 68.377534,251.5 c -1.408589,14.77227 -1.721608,29.29707 -1.745607,81 -0.02918,62.87375 0.196365,68.76891 3.94076,103 4.273836,39.07122 11.514225,67.10363 23.223716,89.91461 23.830407,46.42344 70.137367,66.71014 167.703597,73.46957 22.34238,1.54789 124.89477,1.268 147.5,-0.40256 z"
     id="path7"
     transform="scale(0.03)" />
</svg>
