<?xml version="1.0" encoding="UTF-8" standalone="no"?>
<!-- Uploaded to: SVG Repo, www.svgrepo.com, Generator: SVG Repo Mixer Tools -->

<svg
   width="800px"
   height="800px"
   viewBox="0 0 24 24"
   fill="none"
   version="1.1"
   id="svg6"
   sodipodi:docname="router-svgrepo-com.svg"
   inkscape:version="1.3.2 (091e20ef0f, 2023-11-25, custom)"
   xmlns:inkscape="http://www.inkscape.org/namespaces/inkscape"
   xmlns:sodipodi="http://sodipodi.sourceforge.net/DTD/sodipodi-0.dtd"
   xmlns="http://www.w3.org/2000/svg"
   xmlns:svg="http://www.w3.org/2000/svg">
  <defs
     id="defs6" />
  <sodipodi:namedview
     id="namedview6"
     pagecolor="#ffffff"
     bordercolor="#000000"
     borderopacity="0.25"
     inkscape:showpageshadow="2"
     inkscape:pageopacity="0.0"
     inkscape:pagecheckerboard="0"
     inkscape:deskcolor="#d1d1d1"
     inkscape:zoom="1.08625"
     inkscape:cx="399.5397"
     inkscape:cy="400"
     inkscape:window-width="1920"
     inkscape:window-height="1046"
     inkscape:window-x="0"
     inkscape:window-y="0"
     inkscape:window-maximized="1"
     inkscape:current-layer="svg6" />
  <path
     d="M9.2255 5.33199C8.92208 5.86298 8.93352 6.58479 9.55278 6.89443C10.3201 7.27808 10.7664 6.59927 11.1323 6.04284C11.4473 5.56389 11.8013 5.11292 12.2071 4.70711C13.0981 3.8161 14.3588 3 16 3C17.6412 3 18.9019 3.8161 19.7929 4.70711C20.1967 5.11095 20.5495 5.5595 20.8632 6.03593C21.2289 6.59127 21.6809 7.27759 22.4472 6.89443C23.0634 6.58633 23.0765 5.86043 22.7745 5.33199C22.7019 5.20497 22.5962 5.02897 22.4571 4.8203C22.1799 4.40465 21.7643 3.8501 21.2071 3.29289C20.0981 2.1839 18.3588 1 16 1C13.6412 1 11.9019 2.1839 10.7929 3.29289C10.2357 3.8501 9.82005 4.40465 9.54295 4.8203C9.40383 5.02897 9.29809 5.20497 9.2255 5.33199Z"
     fill="#0F0F0F"
     id="path1" />
  <path
     d="M14.4762 6.71292C14.2768 6.90911 14.1223 7.10809 14.0182 7.2579C13.6696 7.75991 13.1966 8.23817 12.5294 7.88235C11.9766 7.58751 11.8923 6.8973 12.193 6.39806C12.2358 6.327 12.2967 6.23053 12.3755 6.1171C12.5319 5.89191 12.7649 5.59089 13.0738 5.28708C13.6809 4.68987 14.6689 4 15.9999 4C17.3309 4 18.3189 4.68986 18.9261 5.28706C19.235 5.59087 19.468 5.89188 19.6244 6.11707C19.7031 6.2305 19.764 6.32697 19.8069 6.39803C20.1082 6.8983 20.0212 7.58858 19.4705 7.88233C18.8032 8.23829 18.3304 7.76001 17.9817 7.25793C17.8776 7.10812 17.7231 6.90913 17.5236 6.71294C17.1141 6.31014 16.6021 6 15.9999 6C15.3977 6 14.8857 6.31013 14.4762 6.71292Z"
     fill="#0F0F0F"
     id="path2" />
  <path
     d="M5 18C4.44772 18 4 18.4477 4 19C4 19.5523 4.44772 20 5 20C5.55228 20 6 19.5523 6 19C6 18.4477 5.55228 18 5 18Z"
     fill="#0F0F0F"
     id="path3" />
  <path
     d="M7 19C7 18.4477 7.44771 18 8 18C8.55229 18 9 18.4477 9 19C9 19.5523 8.55229 20 8 20C7.44771 20 7 19.5523 7 19Z"
     fill="#0F0F0F"
     id="path4" />
  <path
     d="M10 19C10 18.4477 10.4477 18 11 18C11.5523 18 12 18.4477 12 19C12 19.5523 11.5523 20 11 20C10.4477 20 10 19.5523 10 19Z"
     fill="#0F0F0F"
     id="path5" />
  <path
     fill-rule="evenodd"
     clip-rule="evenodd"
     d="M15 8C15 7.44771 15.4477 7 16 7C16.5523 7 17 7.44771 17 8V15H20C21.6569 15 23 16.3431 23 18V20C23 21.6569 21.6569 23 20 23H4C2.34315 23 1 21.6569 1 20V18C1 16.3431 2.34315 15 4 15H15V8ZM20 17C20.5523 17 21 17.4477 21 18V20C21 20.5523 20.5523 21 20 21H4C3.44772 21 3 20.5523 3 20V18C3 17.4477 3.44772 17 4 17H20Z"
     fill="#0F0F0F"
     id="path6" />
  <path
     style="fill:#ffffff;stroke:#ffffff;stroke-width:4.62232;stroke-opacity:1"
     d="M 113.6939,764.07171 C 76.219065,756.17646 47.498205,729.05626 37.061753,691.7104 l -2.539313,-9.08669 v -49.25202 -49.25201 l 2.539313,-9.08669 c 9.086739,-32.51605 31.817256,-57.27477 63.046497,-68.67202 16.11091,-5.87976 3.75784,-5.55545 211.60596,-5.55545 h 189.07124 l 0.24018,-121.28883 0.24019,-121.28884 2.45817,-5.24419 c 3.13578,-6.68978 9.54342,-13.09743 16.2332,-16.2332 4.49608,-2.1075 6.42616,-2.45277 13.52958,-2.4203 7.10819,0.0325 9.02806,0.39723 13.51252,2.56713 7.73304,3.7418 14.90891,11.87553 17.29633,19.60512 1.84191,5.96338 1.87239,8.00148 1.87239,125.1826 v 119.12051 h 55.5945 c 60.31346,0 63.28757,0.20131 77.2935,5.23181 31.7634,11.40843 54.71725,36.1996 63.88224,68.99566 l 2.53931,9.08669 -0.005,49.25201 -0.005,49.25202 -2.44328,8.85512 c -9.71357,35.20448 -36.31976,61.81244 -71.54603,71.55073 l -8.85512,2.448 -280.32221,0.16987 c -272.02927,0.16484 -280.56732,0.11822 -288.6076,-1.57572 z m 561.60175,-64.89992 c 11.46564,-2.93301 21.0093,-12.55253 23.92774,-24.11793 1.22398,-4.85046 1.40269,-11.62458 1.16577,-44.18873 -0.27142,-37.30743 -0.34128,-38.61181 -2.33074,-43.52336 -3.00418,-7.41667 -9.239,-14.05671 -16.60286,-17.68192 l -6.15793,-3.03154 H 400.01936 124.74108 l -5.34772,2.50556 c -7.13722,3.344 -14.56616,11.02241 -17.35196,17.93466 -2.116427,5.25138 -2.155214,5.95027 -2.430564,43.7966 -0.316257,43.46887 -0.03358,46.03532 6.054844,54.97154 4.14748,6.08741 11.64761,11.43771 18.6151,13.27927 4.37147,1.15541 41.98645,1.34654 275.29565,1.39885 239.26752,0.0536 270.86108,-0.10024 275.71922,-1.343 z"
     id="path7"
     transform="scale(0.03)" />
  <path
     style="fill:#ffffff;stroke:#ffffff;stroke-width:4.62232;stroke-opacity:1"
     d="m 359.49367,665.26628 c -7.12945,-1.84432 -11.73126,-4.63695 -16.82504,-10.21036 -6.47077,-7.08005 -8.7528,-13.40509 -8.32175,-23.06513 0.58155,-13.03255 7.12844,-22.74507 19.1629,-28.42877 5.08232,-2.40031 7.02416,-2.81751 12.88838,-2.76904 13.2442,0.10947 23.83635,6.74562 29.66115,18.5832 2.69894,5.48498 3.01994,6.97386 3.01865,14.00141 -0.001,7.02422 -0.32371,8.51839 -3.02009,13.99551 -6.81464,13.84249 -22.51754,21.52692 -36.5642,17.89318 z"
     id="path8"
     transform="scale(0.03)" />
  <path
     style="fill:#ffffff;stroke:#ffffff;stroke-width:4.62232;stroke-opacity:1"
     d="m 258.90002,665.08594 c -6.39304,-1.72116 -9.00581,-3.1426 -14.21717,-7.73464 -2.72829,-2.40406 -5.46224,-6.10496 -7.36479,-9.96959 -2.7048,-5.49423 -3.02577,-6.9804 -3.02577,-14.01002 0,-7.02661 0.32152,-8.5169 3.02009,-13.99848 5.83358,-11.84967 16.44035,-18.48748 29.66115,-18.56217 9.44193,-0.0534 16.5644,3.16131 23.42669,10.57341 6.82785,7.37489 9.10107,13.56209 8.58561,23.36814 -0.47717,9.07782 -2.6866,14.36363 -8.68385,20.77517 -4.99299,5.33792 -10.47681,8.43474 -17.62002,9.95037 -6.07052,1.28803 -7.71477,1.24124 -13.78194,-0.39219 z"
     id="path9"
     transform="scale(0.03)" />
  <path
     style="fill:#ffffff;stroke:#ffffff;stroke-width:4.62232;stroke-opacity:1"
     d="m 160.51098,665.59441 c -10.12272,-2.10459 -18.99791,-9.30254 -23.60231,-19.14192 -2.41002,-5.15009 -2.83382,-7.12432 -2.79658,-13.02761 0.0991,-15.70976 9.99614,-28.12909 25.45662,-31.94435 18.0504,-4.45438 35.87418,7.79721 39.46954,27.1303 2.00278,10.76939 -3.62591,24.39624 -12.7268,30.81115 -7.83969,5.52592 -17.63672,7.86973 -25.80047,6.17243 z"
     id="path10"
     transform="scale(0.03)" />
  <path
     style="fill:#ffffff;stroke:#ffffff;stroke-width:4.62232;stroke-opacity:1"
     d="m 421.87062,264.15754 c -6.51409,-2.57892 -14.25879,-9.82874 -17.45705,-16.34158 -2.30155,-4.68678 -2.57237,-6.21912 -2.57237,-14.55446 0,-9.15145 0.0696,-9.4526 3.93485,-17.03107 7.41856,-14.54524 24.1603,-34.79033 39.30777,-47.53326 19.3812,-16.30459 36.99361,-25.70089 58.10823,-31.001 32.36869,-8.12506 65.50273,-3.10758 95.30505,14.43202 22.13007,13.02424 45.84093,36.45586 59.54202,58.84079 5.45075,8.90548 6.94244,13.77613 7.00203,22.86301 0.0431,6.57146 -0.33413,8.65396 -2.35468,12.99886 -5.26092,11.31292 -15.1443,18.22982 -27.17899,19.02126 -5.92484,0.38963 -7.21289,0.14966 -12.42808,-2.31548 -8.01616,-3.78913 -13.3474,-8.82445 -23.08994,-21.8083 -13.72741,-18.29448 -25.64463,-28.90576 -40.41041,-35.98207 -19.48188,-9.33644 -41.39775,-7.68373 -61.12101,4.60925 -9.17767,5.72019 -23.03125,19.37403 -31.75949,31.30157 -12.77818,17.46198 -21.176,23.58528 -33.06144,24.10683 -5.38654,0.23638 -8.02005,-0.12316 -11.76649,-1.60637 z"
     id="path11"
     transform="scale(0.03)" />
  <path
     style="fill:#ffffff;stroke:#ffffff;stroke-width:4.62232;stroke-opacity:1"
     d="m 323.40606,231.25344 c -14.22482,-5.08241 -21.46973,-15.50424 -21.43037,-30.82767 0.0257,-9.99093 2.57011,-17.0896 10.92042,-30.46644 30.82592,-49.38186 73.37247,-89.336818 119.15706,-111.898976 23.35056,-11.506899 43.59899,-18.029401 67.86457,-21.860792 15.08077,-2.381162 52.38748,-2.374017 66.71057,0.01278 52.44603,8.739587 96.28788,31.671271 137.49547,71.917648 19.40346,18.95084 37.92054,42.24953 51.22586,64.45373 7.52995,12.56614 9.20751,17.77132 9.20672,28.56703 -5.1e-4,7.03944 -0.36755,9.06831 -2.44083,13.49172 -3.01607,6.43489 -8.52297,11.89507 -15.36227,15.23192 -4.3508,2.12274 -6.42729,2.54538 -12.57604,2.55963 -6.44374,0.0149 -7.97492,-0.32092 -12.24336,-2.68561 -6.86819,-3.80491 -15.83511,-13.65139 -25.62392,-28.13736 -30.05922,-44.48315 -61.15602,-72.37058 -98.84159,-88.6406 -51.70797,-22.32391 -108.70056,-16.597628 -157.11125,15.78562 -26.29355,17.58849 -47.34326,39.38644 -69.30184,71.76526 -16.36288,24.12773 -24.68151,31.38409 -36.78637,32.08884 -4.33057,0.25213 -7.45054,-0.13754 -10.86283,-1.35673 z"
     id="path12"
     transform="scale(0.03)" />
</svg>
